<?xml version="1.0" encoding="UTF-8"?>
<svg id="_图层_1" data-name="图层 1" xmlns="http://www.w3.org/2000/svg" viewBox="0 0 15.6 15.6">
  <g id="icon-2">
    <path d="m7.8,0C3.49,0,0,3.49,0,7.79s3.49,7.81,7.8,7.81,7.8-3.5,7.8-7.81c0-4.3-3.49-7.79-7.8-7.79Z" style="fill: #000; stroke-width: 0px;"/>
    <g>
      <g>
        <g>
          <path d="m5.43,7.8c0,.61-.49,1.1-1.1,1.1s-1.1-.49-1.1-1.1.49-1.1,1.1-1.1c.61.01,1.1.5,1.1,1.1Z" style="fill: #fff; stroke-width: 0px;"/>
          <path d="m8.9,7.8c0,.61-.49,1.1-1.1,1.1s-1.1-.49-1.1-1.1.49-1.1,1.1-1.1c.6.01,1.1.5,1.1,1.1Z" style="fill: #fff; stroke-width: 0px;"/>
          <circle cx="11.26" cy="7.8" r="1.1" style="fill: #fff; stroke-width: 0px;"/>
        </g>
        <line x1="1.98" y1="7.8" x2="13.62" y2="7.8" style="fill: none; stroke: #fff; stroke-linecap: round; stroke-linejoin: round; stroke-width: .5px;"/>
      </g>
      <line x1="4.34" y1="2.89" x2="4.34" y2="12.72" style="fill: none; stroke: #fff; stroke-linecap: round; stroke-linejoin: round; stroke-width: .5px;"/>
      <line x1="7.8" y1="2.89" x2="7.8" y2="12.72" style="fill: none; stroke: #fff; stroke-linecap: round; stroke-linejoin: round; stroke-width: .5px;"/>
      <line x1="11.26" y1="2.89" x2="11.26" y2="12.72" style="fill: none; stroke: #fff; stroke-linecap: round; stroke-linejoin: round; stroke-width: .5px;"/>
    </g>
  </g>
</svg>