<?xml version="1.0" encoding="UTF-8"?>
<svg id="_图层_1" data-name="图层 1" xmlns="http://www.w3.org/2000/svg" viewBox="0 0 14.94 14.95">
  <g id="icon-4">
    <path d="m7.47,0C3.34,0,0,3.34,0,7.47s3.35,7.48,7.47,7.48,7.47-3.35,7.47-7.48S11.59,0,7.47,0Z" style="fill: #000; stroke-width: 0px;"/>
    <path d="m10.08,7.93c.02.04.04.1.04.15.05.33-.18.64-.5.69-.33.05-.64-.18-.69-.5-.05-.33.18-.64.5-.69.09-.01.17-.01.25.02l1.59-1.6c0-.06.01-.11.01-.16v-1.86l-2.46-.67-2.55,2.55c.01.03.02.06.03.09.05.33-.18.64-.51.69-.33.05-.64-.17-.69-.5s.18-.64.5-.69c.11-.02.22,0,.32.04l2.32-2.34-.79-.21-3.83,1.04v1.86c0,1.29.3,2.36.73,3.25l.78-.77c-.01-.04-.03-.08-.03-.12-.05-.33.18-.64.5-.69.33-.05.64.18.69.5.05.33-.18.64-.51.69-.1.02-.19,0-.28-.03l-.9.9c.25.43.53.8.82,1.13l2.02-2.04-.23-1.44.78-.79c-.01-.03-.02-.06-.03-.1-.05-.33.18-.64.51-.69.33-.05.64.17.69.5s-.17.64-.5.69c-.11.02-.22,0-.31-.04l-.59.59.22,1.44-2.18,2.2-.08-.01c.64.63,1.28,1.06,1.71,1.3,1.06-.59,3.38-2.26,3.76-5.53l-1.11,1.15Z" style="fill: #fff; stroke-width: 0px;"/>
  </g>
</svg>